name D:\school\WTK\thesis\model\3dpredictsim\Results\Batchsim_tmt_linear_v2\Pog_s1_tmt_aCst_d05_k2000_ig24.mot
datacolumns 128
datarows 4
range 1.55831634 1.58948266
endheader
time	pelvis_tilt	pelvis_list	pelvis_rotation	pelvis_tx	pelvis_ty	pelvis_tz	hip_flexion_l	hip_adduction_l	hip_rotation_l	hip_flexion_r	hip_adduction_r	hip_rotation_r	knee_angle_l	knee_angle_r	ankle_angle_l	ankle_angle_r	subtalar_angle_l	subtalar_angle_r	tmt_angle_l	tmt_angle_r	mtp_angle_l	mtp_angle_r	lumbar_extension	lumbar_bending	lumbar_rotation	arm_flex_l	arm_add_l	arm_rot_l	arm_flex_r	arm_add_r	arm_rot_r	elbow_flex_l	elbow_flex_r	pro_sup_l	pro_sup_r	glut_med1_l/activation	glut_med2_l/activation	glut_med3_l/activation	glut_min1_l/activation	glut_min2_l/activation	glut_min3_l/activation	semimem_l/activation	semiten_l/activation	bifemlh_l/activation	bifemsh_l/activation	sar_l/activation	add_long_l/activation	add_brev_l/activation	add_mag1_l/activation	add_mag2_l/activation	add_mag3_l/activation	tfl_l/activation	pect_l/activation	grac_l/activation	glut_max1_l/activation	glut_max2_l/activation	glut_max3_l/activation	iliacus_l/activation	psoas_l/activation	quad_fem_l/activation	gem_l/activation	peri_l/activation	rect_fem_l/activation	vas_med_l/activation	vas_int_l/activation	vas_lat_l/activation	med_gas_l/activation	lat_gas_l/activation	soleus_l/activation	tib_post_l/activation	flex_dig_l/activation	flex_hal_l/activation	tib_ant_l/activation	per_brev_l/activation	per_long_l/activation	per_tert_l/activation	ext_dig_l/activation	ext_hal_l/activation	ercspn_l/activation	intobl_l/activation	extobl_l/activation	glut_med1_r/activation	glut_med2_r/activation	glut_med3_r/activation	glut_min1_r/activation	glut_min2_r/activation	glut_min3_r/activation	semimem_r/activation	semiten_r/activation	bifemlh_r/activation	bifemsh_r/activation	sar_r/activation	add_long_r/activation	add_brev_r/activation	add_mag1_r/activation	add_mag2_r/activation	add_mag3_r/activation	tfl_r/activation	pect_r/activation	grac_r/activation	glut_max1_r/activation	glut_max2_r/activation	glut_max3_r/activation	iliacus_r/activation	psoas_r/activation	quad_fem_r/activation	gem_r/activation	peri_r/activation	rect_fem_r/activation	vas_med_r/activation	vas_int_r/activation	vas_lat_r/activation	med_gas_r/activation	lat_gas_r/activation	soleus_r/activation	tib_post_r/activation	flex_dig_r/activation	flex_hal_r/activation	tib_ant_r/activation	per_brev_r/activation	per_long_r/activation	per_tert_r/activation	ext_dig_r/activation	ext_hal_r/activation	ercspn_r/activation	intobl_r/activation	extobl_r/activation	
          1.55831634	         -2.04309888	         -1.01934450	         -4.44768177	          1.94789542	          0.87441704	          0.00159082	         25.86828843	         -0.54064809	         -3.71739182	        -18.54182525	          1.42611829	          4.69033739	         -8.93755653	         -4.45750997	          5.36671947	         -7.75030526	          5.45927512	          7.25516353	          0.01761524	          0.54417838	         -0.11460251	         26.00920607	         -0.15843450	          3.29020911	          1.38271931	         -9.20172991	        -13.45344045	          9.77673145	          2.43104641	        -13.46162241	          8.16231535	         19.41841158	         24.92886785	         86.51662706	         86.51662706	          0.05000059	          0.06881022	          0.08238387	          0.05000055	          0.05000094	          0.05844549	          0.06381329	          0.05865843	          0.06881254	          0.05000258	          0.05000112	          0.05000043	          0.05000092	          0.11522838	          0.12947191	          0.12912029	          0.05000507	          0.05000187	          0.05024904	          0.05865879	          0.07347588	          0.14746194	          0.05000012	          0.05000015	          0.06538043	          0.05872809	          0.05000948	          0.05000190	          0.05001522	          0.07270718	          0.05000459	          0.05000010	          0.05000025	          0.05000002	          0.05772030	          0.05865805	          0.05865820	          0.43607924	          0.27172230	          0.17480765	          0.15570026	          0.44194734	          0.21708488	          0.05455892	          0.15697593	          0.14896321	          0.29037178	          0.09470653	          0.08072834	          0.26506452	          0.16769732	          0.09470681	          0.05000415	          0.05000041	          0.05000038	          0.05000056	          0.09441369	          0.05000022	          0.05000019	          0.05000034	          0.05000144	          0.05000162	          0.23412822	          0.05000068	          0.05000052	          0.05009538	          0.05001857	          0.05000397	          0.33877879	          0.64518181	          0.05000040	          0.05001035	          0.08068820	          0.26742791	          0.05373972	          0.07447964	          0.05046128	          0.19686782	          0.28485726	          0.21317842	          0.22000459	          0.20079584	          0.27928266	          0.05000010	          0.08074644	          0.14268887	          0.05000064	          0.05000019	          0.05000054	          0.05000002	          0.05000004	          0.05000006	
          1.56870511	         -2.03195768	         -1.09055820	         -4.59721129	          1.96376311	          0.87313908	          0.00147957	         25.41465801	         -0.42203971	         -3.48524565	        -18.46024164	          1.31177503	          4.45928423	         -8.71938177	         -6.33610939	          4.95566344	         -8.35537629	          5.02896191	          8.16687249	          0.01953939	          0.51447737	         -0.09092347	         26.90673843	          0.02120838	          3.13509135	          1.43593665	        -10.23206843	        -13.45009069	          9.63671080	          2.25603895	        -13.48074281	          8.36809436	         19.45285116	         25.66907251	         86.51662706	         86.51662706	          0.05865338	          0.05865493	          0.26005668	          0.05865802	          0.05865765	          0.05000823	          0.05865708	          0.05000117	          0.05865744	          0.05000045	          0.05000435	          0.09470609	          0.13683702	          0.13631599	          0.16215632	          0.15098740	          0.05000030	          0.07095407	          0.05000203	          0.05000145	          0.06263157	          0.18377964	          0.05865768	          0.05001373	          0.05573091	          0.05006077	          0.10555360	          0.06421736	          0.21519185	          0.21555140	          0.18758435	          0.05000010	          0.05000015	          0.05012915	          0.05000003	          0.05000080	          0.05000102	          0.57060706	          0.26574191	          0.14900780	          0.48607075	          0.53128602	          0.31910560	          0.05000023	          0.13380765	          0.12697754	          0.24751560	          0.08072871	          0.06881361	          0.22594350	          0.14294675	          0.08072899	          0.05000224	          0.05000030	          0.05000025	          0.05000047	          0.08047972	          0.12193714	          0.09593797	          0.05034563	          0.05000741	          0.05000103	          0.19957307	          0.06815113	          0.05005766	          0.05000263	          0.05000170	          0.05000210	          0.28877814	          0.57459085	          0.05991216	          0.05000125	          0.06877953	          0.22795790	          0.12112063	          0.12582490	          0.09021657	          0.16781186	          0.24281492	          0.20385078	          0.19634111	          0.17116535	          0.23806452	          0.05000004	          0.06882933	          0.13974765	          0.05000031	          0.05000009	          0.05000027	          0.05000013	          0.05000052	          0.05203895	
          1.57909389	         -2.01404027	         -1.14474699	         -4.72284096	          1.97992589	          0.87180116	          0.00136464	         24.86516055	         -0.30859621	         -3.21891800	        -18.26371348	          1.18361488	          4.21847133	         -9.09160995	         -8.43955086	          4.30964787	         -8.97985479	          4.59322425	          9.07941616	          0.01294521	          0.46708846	         -0.04314483	         27.53300580	          0.22361679	          2.94645633	          1.48363181	        -11.28029631	        -13.45147627	          9.50685375	          2.01104613	        -13.50549949	          8.55326815	         19.49326522	         26.40037504	         86.51662706	         86.51662706	          0.05000013	          0.05000075	          0.22167469	          0.05000069	          0.05000047	          0.05000066	          0.05000009	          0.05000025	          0.05000021	          0.05000011	          0.05000034	          0.08072847	          0.11664119	          0.19200685	          0.19732884	          0.15493087	          0.05865851	          0.06048258	          0.05033549	          0.09919021	          0.10565509	          0.15665566	          0.05000044	          0.05000088	          0.14690379	          0.05000144	          0.08997490	          0.06881363	          0.23760340	          0.25619328	          0.19392577	          0.05000041	          0.05000113	          0.05000004	          0.05865722	          0.06747525	          0.05000314	          0.48639041	          0.31527868	          0.17079712	          0.41433123	          0.45287293	          0.27200844	          0.05000001	          0.11405881	          0.10823676	          0.21098452	          0.06881390	          0.05865745	          0.19259639	          0.12184914	          0.06881419	          0.05000780	          0.05000077	          0.05000254	          0.05000015	          0.06860193	          0.16839792	          0.22486658	          0.06881026	          0.05866204	          0.05885776	          0.17011793	          0.05809314	          0.05000232	          0.05865651	          0.05865759	          0.05865828	          0.24615704	          0.50995434	          0.05865746	          0.05865775	          0.05865693	          0.19431331	          0.13670484	          0.15290662	          0.15271407	          0.14304429	          0.20697758	          0.17376420	          0.16736304	          0.14590336	          0.20292860	          0.05000009	          0.05867083	          0.14869374	          0.05000015	          0.05000014	          0.05000039	          0.05000009	          0.06881351	          0.07059709	
          1.58948266	         -1.99135107	         -1.18122164	         -4.82457106	          1.99625349	          0.87037668	          0.00125330	         24.18931028	         -0.22188307	         -2.93878219	        -17.96888817	          1.04508667	          3.97088873	         -9.78263052	        -10.72298528	          3.82569124	         -9.57414292	          4.13488035	          9.95730063	         -0.00460394	          0.39943078	         -0.17881517	         27.71161251	          0.43621975	          2.72794630	          1.52292971	        -12.31746044	        -13.46214811	          9.42226158	          1.71745676	        -13.53466913	          8.71761854	         19.51590728	         27.12205659	         86.51662706	         86.51662706	          0.21875936	          0.23148178	          0.36559442	          0.26959204	          0.20795365	          0.20690152	          0.06881777	          0.05002523	          0.07340306	          0.07542498	          0.05866379	          0.06881371	          0.09942602	          0.16366844	          0.16820504	          0.15377006	          0.05000142	          0.05155657	          0.05000071	          0.16860414	          0.14957850	          0.14032659	          0.05001141	          0.05000123	          0.12522223	          0.05868904	          0.20129099	          0.05865736	          0.20253528	          0.21838145	          0.16530408	          0.05000107	          0.05000173	          0.05000041	          0.05000006	          0.05865513	          0.05103840	          0.56195510	          0.26874675	          0.14558909	          0.63647080	          0.54766937	          0.32624578	          0.05000007	          0.09722474	          0.09226196	          0.22636944	          0.05865759	          0.05000015	          0.19739309	          0.10386537	          0.05865787	          0.06168538	          0.05000052	          0.05000032	          0.05000144	          0.05871551	          0.17161805	          0.20249956	          0.05865507	          0.05000678	          0.05017127	          0.14501019	          0.09130769	          0.05000194	          0.05000152	          0.05000121	          0.05000160	          0.20982653	          0.47683704	          0.05000021	          0.05000061	          0.05000015	          0.16563436	          0.11652849	          0.13033902	          0.13017489	          0.12193220	          0.17642951	          0.14811812	          0.14266181	          0.12436957	          0.17297832	          0.05000027	          0.12518857	          0.12811281	          0.05009301	          0.13434147	          0.05000228	          0.05859611	          0.05865724	          0.06017761	
